<svg width="18" height="18" viewBox="0 0 18 18" fill="none" xmlns="http://www.w3.org/2000/svg">
<path d="M9 0C4.032 0 0 4.032 0 9C0 13.968 4.032 18 9 18C13.968 18 18 13.968 18 9C18 4.032 13.968 0 9 0ZM9 3.6C10.737 3.6 12.15 5.013 12.15 6.75C12.15 8.487 10.737 9.9 9 9.9C7.263 9.9 5.85 8.487 5.85 6.75C5.85 5.013 7.263 3.6 9 3.6ZM9 16.2C7.173 16.2 5.013 15.462 3.474 13.608C4.995 12.42 6.912 11.7 9 11.7C11.088 11.7 13.005 12.42 14.526 13.608C12.987 15.462 10.827 16.2 9 16.2Z" fill="#9D9D9D"/>
</svg>
