<svg width="22" height="20" viewBox="0 0 22 20" fill="none" xmlns="http://www.w3.org/2000/svg">
<path d="M13.5 0H1.5C0.675 0 0 0.675 0 1.5V15L3 12H13.5C14.325 12 15 11.325 15 10.5V1.5C15 0.675 14.325 0 13.5 0Z" fill="#9D9D9D"/>
<path d="M13.5 0H1.5C0.675 0 0 0.675 0 1.5V15L3 12H13.5C14.325 12 15 11.325 15 10.5V1.5C15 0.675 14.325 0 13.5 0Z" fill="#9D9D9D"/>
<path fill-rule="evenodd" clip-rule="evenodd" d="M9 14V16.1C9 16.815 9.585 17.4 10.3 17.4H19.4L22 20V8.3C22 7.585 21.415 7 20.7 7H17V12C17 13.1046 16.1046 14 15 14H9Z" fill="#9D9D9D"/>
</svg>
